<svg width="1199" height="330" viewBox="0 0 1199 330" fill="none" xmlns="http://www.w3.org/2000/svg">
<rect width="1199" height="330" fill="#1F1E1E"/>
<g clip-path="url(#clip0_0_1)">
<rect width="1440" height="2722" fill="#1C1C1B"/>
<path d="M73.7 93C71.02 88.24 68.12 83.54 65 78.9C61.88 74.26 58.56 69.88 55.04 65.76V93H45.8V51.42H53.42C54.74 52.74 56.2 54.36 57.8 56.28C59.4 58.2 61.02 60.26 62.66 62.46C64.34 64.62 66 66.88 67.64 69.24C69.28 71.56 70.82 73.8 72.26 75.96V51.42H81.56V93H73.7ZM120.072 77.16C120.072 79.64 119.712 81.92 118.992 84C118.272 86.04 117.232 87.8 115.872 89.28C114.512 90.72 112.872 91.84 110.952 92.64C109.072 93.44 106.952 93.84 104.592 93.84C102.272 93.84 100.152 93.44 98.2316 92.64C96.3516 91.84 94.7316 90.72 93.3716 89.28C92.0116 87.8 90.9516 86.04 90.1916 84C89.4316 81.92 89.0516 79.64 89.0516 77.16C89.0516 74.68 89.4316 72.42 90.1916 70.38C90.9916 68.34 92.0716 66.6 93.4316 65.16C94.8316 63.72 96.4716 62.6 98.3516 61.8C100.272 61 102.352 60.6 104.592 60.6C106.872 60.6 108.952 61 110.832 61.8C112.752 62.6 114.392 63.72 115.752 65.16C117.112 66.6 118.172 68.34 118.932 70.38C119.692 72.42 120.072 74.68 120.072 77.16ZM110.952 77.16C110.952 74.4 110.392 72.24 109.272 70.68C108.192 69.08 106.632 68.28 104.592 68.28C102.552 68.28 100.972 69.08 99.8516 70.68C98.7316 72.24 98.1716 74.4 98.1716 77.16C98.1716 79.92 98.7316 82.12 99.8516 83.76C100.972 85.36 102.552 86.16 104.592 86.16C106.632 86.16 108.192 85.36 109.272 83.76C110.392 82.12 110.952 79.92 110.952 77.16ZM136.057 86.58C137.697 86.58 138.857 86.42 139.537 86.1C140.217 85.78 140.557 85.16 140.557 84.24C140.557 83.52 140.117 82.9 139.237 82.38C138.357 81.82 137.017 81.2 135.217 80.52C133.817 80 132.537 79.46 131.377 78.9C130.257 78.34 129.297 77.68 128.497 76.92C127.697 76.12 127.077 75.18 126.637 74.1C126.197 73.02 125.977 71.72 125.977 70.2C125.977 67.24 127.077 64.9 129.277 63.18C131.477 61.46 134.497 60.6 138.337 60.6C140.257 60.6 142.097 60.78 143.857 61.14C145.617 61.46 147.017 61.82 148.057 62.22L146.497 69.18C145.457 68.82 144.317 68.5 143.077 68.22C141.877 67.94 140.517 67.8 138.997 67.8C136.197 67.8 134.797 68.58 134.797 70.14C134.797 70.5 134.857 70.82 134.977 71.1C135.097 71.38 135.337 71.66 135.697 71.94C136.057 72.18 136.537 72.46 137.137 72.78C137.777 73.06 138.577 73.38 139.537 73.74C141.497 74.46 143.117 75.18 144.397 75.9C145.677 76.58 146.677 77.34 147.397 78.18C148.157 78.98 148.677 79.88 148.957 80.88C149.277 81.88 149.437 83.04 149.437 84.36C149.437 87.48 148.257 89.84 145.897 91.44C143.577 93.04 140.277 93.84 135.997 93.84C133.197 93.84 130.857 93.6 128.977 93.12C127.137 92.64 125.857 92.24 125.137 91.92L126.637 84.66C128.157 85.26 129.717 85.74 131.317 86.1C132.917 86.42 134.497 86.58 136.057 86.58ZM165.058 93H156.118V61.44H165.058V93ZM165.898 52.32C165.898 53.96 165.358 55.26 164.278 56.22C163.238 57.14 161.998 57.6 160.558 57.6C159.118 57.6 157.858 57.14 156.778 56.22C155.738 55.26 155.218 53.96 155.218 52.32C155.218 50.68 155.738 49.4 156.778 48.48C157.858 47.52 159.118 47.04 160.558 47.04C161.998 47.04 163.238 47.52 164.278 48.48C165.358 49.4 165.898 50.68 165.898 52.32ZM181.082 76.98C181.082 79.74 181.702 81.96 182.942 83.64C184.182 85.32 186.022 86.16 188.462 86.16C189.262 86.16 190.002 86.14 190.682 86.1C191.362 86.02 191.922 85.94 192.362 85.86V69.6C191.802 69.24 191.062 68.94 190.142 68.7C189.262 68.46 188.362 68.34 187.442 68.34C183.202 68.34 181.082 71.22 181.082 76.98ZM201.302 91.98C200.502 92.22 199.582 92.46 198.542 92.7C197.502 92.9 196.402 93.08 195.242 93.24C194.122 93.4 192.962 93.52 191.762 93.6C190.602 93.72 189.482 93.78 188.402 93.78C185.802 93.78 183.482 93.4 181.442 92.64C179.402 91.88 177.682 90.8 176.282 89.4C174.882 87.96 173.802 86.24 173.042 84.24C172.322 82.2 171.962 79.92 171.962 77.4C171.962 74.84 172.282 72.54 172.922 70.5C173.562 68.42 174.482 66.66 175.682 65.22C176.882 63.78 178.342 62.68 180.062 61.92C181.822 61.16 183.822 60.78 186.062 60.78C187.302 60.78 188.402 60.9 189.362 61.14C190.362 61.38 191.362 61.72 192.362 62.16V47.88L201.302 46.44V91.98ZM218.613 93H209.673V61.44H218.613V93ZM219.453 52.32C219.453 53.96 218.913 55.26 217.833 56.22C216.793 57.14 215.553 57.6 214.113 57.6C212.673 57.6 211.413 57.14 210.333 56.22C209.293 55.26 208.773 53.96 208.773 52.32C208.773 50.68 209.293 49.4 210.333 48.48C211.413 47.52 212.673 47.04 214.113 47.04C215.553 47.04 216.793 47.52 217.833 48.48C218.913 49.4 219.453 50.68 219.453 52.32ZM239.076 86.76C239.956 86.76 240.796 86.74 241.596 86.7C242.396 86.66 243.036 86.6 243.516 86.52V79.74C243.156 79.66 242.616 79.58 241.896 79.5C241.176 79.42 240.516 79.38 239.916 79.38C239.076 79.38 238.276 79.44 237.516 79.56C236.796 79.64 236.156 79.82 235.596 80.1C235.036 80.38 234.596 80.76 234.276 81.24C233.956 81.72 233.796 82.32 233.796 83.04C233.796 84.44 234.256 85.42 235.176 85.98C236.136 86.5 237.436 86.76 239.076 86.76ZM238.356 60.6C240.996 60.6 243.196 60.9 244.956 61.5C246.716 62.1 248.116 62.96 249.156 64.08C250.236 65.2 250.996 66.56 251.436 68.16C251.876 69.76 252.096 71.54 252.096 73.5V92.1C250.816 92.38 249.036 92.7 246.756 93.06C244.476 93.46 241.716 93.66 238.476 93.66C236.436 93.66 234.576 93.48 232.896 93.12C231.256 92.76 229.836 92.18 228.636 91.38C227.436 90.54 226.516 89.46 225.876 88.14C225.236 86.82 224.916 85.2 224.916 83.28C224.916 81.44 225.276 79.88 225.996 78.6C226.756 77.32 227.756 76.3 228.996 75.54C230.236 74.78 231.656 74.24 233.256 73.92C234.856 73.56 236.516 73.38 238.236 73.38C239.396 73.38 240.416 73.44 241.296 73.56C242.216 73.64 242.956 73.76 243.516 73.92V73.08C243.516 71.56 243.056 70.34 242.136 69.42C241.216 68.5 239.616 68.04 237.336 68.04C235.816 68.04 234.316 68.16 232.836 68.4C231.356 68.6 230.076 68.9 228.996 69.3L227.856 62.1C228.376 61.94 229.016 61.78 229.776 61.62C230.576 61.42 231.436 61.26 232.356 61.14C233.276 60.98 234.236 60.86 235.236 60.78C236.276 60.66 237.316 60.6 238.356 60.6ZM260.18 62.52C261.7 62.08 263.66 61.68 266.06 61.32C268.46 60.92 270.98 60.72 273.62 60.72C276.3 60.72 278.52 61.08 280.28 61.8C282.08 62.48 283.5 63.46 284.54 64.74C285.58 66.02 286.32 67.54 286.76 69.3C287.2 71.06 287.42 73.02 287.42 75.18V93H278.48V76.26C278.48 73.38 278.1 71.34 277.34 70.14C276.58 68.94 275.16 68.34 273.08 68.34C272.44 68.34 271.76 68.38 271.04 68.46C270.32 68.5 269.68 68.56 269.12 68.64V93H260.18V62.52Z" fill="white"/>
<g filter="url(#filter0_f_0_1)">
<path d="M905 -23C905 9.5848 878.585 36 846 36C813.415 36 787 9.5848 787 -23C787 -55.5848 813.415 -82 846 -82C878.585 -82 905 -55.5848 905 -23Z" fill="white"/>
</g>
<path d="M-0.506327 248.702L-0.506326 250C-0.506326 250 -24.2912 253.004 -0.506327 248.702L-0.506452 0H740C740 0 679.227 183.712 588.834 220.039C498.441 256.366 336.744 195.422 178.236 220.039C66.2273 237.435 18.1799 245.323 -0.506327 248.702Z" fill="url(#paint0_linear_0_1)" fill-opacity="0.8"/>
</g>
<defs>
<filter id="filter0_f_0_1" x="493" y="-376" width="706" height="706" filterUnits="userSpaceOnUse" color-interpolation-filters="sRGB">
<feFlood flood-opacity="0" result="BackgroundImageFix"/>
<feBlend mode="normal" in="SourceGraphic" in2="BackgroundImageFix" result="shape"/>
<feGaussianBlur stdDeviation="147" result="effect1_foregroundBlur_0_1"/>
</filter>
<linearGradient id="paint0_linear_0_1" x1="-204.5" y1="-0.000384122" x2="716.98" y2="254.556" gradientUnits="userSpaceOnUse">
<stop stop-color="#6E34E6"/>
<stop offset="1" stop-color="#DEC0DD" stop-opacity="0.8"/>
</linearGradient>
<clipPath id="clip0_0_1">
<rect width="1440" height="2722" fill="white"/>
</clipPath>
</defs>
</svg>
